<svg viewBox="0 0 1448 1448" width="1448" height="1448" x="0" y="0" xmlns="http://www.w3.org/2000/svg"><defs><pattern id="pattern" x="0" y="0" width="8" height="8" patternUnits="userSpaceOnUse"><polygon points="0,4 0,8 8,0 4,0" fill="#ffffff"></polygon><polygon points="4,8 8,8 8,4" fill="#ffffff"></polygon></pattern><mask id="grating" x="0" y="0" width="1" height="1"><rect x="0" y="0" width="100%" height="100%" fill="url(#pattern)"></rect></mask></defs><g id="horizStripes"><rect fill="#003820" height="24" width="100%" x="0" y="0"></rect><rect fill="#14283C" height="160" width="100%" x="0" y="24"></rect><rect fill="#003820" height="128" width="100%" x="0" y="184"></rect><rect fill="#880000" height="16" width="100%" x="0" y="312"></rect><rect fill="#003820" height="16" width="100%" x="0" y="328"></rect><rect fill="#880000" height="24" width="100%" x="0" y="344"></rect><rect fill="#003820" height="24" width="100%" x="0" y="368"></rect><rect fill="#880000" height="40" width="100%" x="0" y="392"></rect><rect fill="#003820" height="128" width="100%" x="0" y="432"></rect><rect fill="#14283C" height="160" width="100%" x="0" y="560"></rect><rect fill="#E8C000" height="8" width="100%" x="0" y="720"></rect><rect fill="#101010" height="16" width="100%" x="0" y="728"></rect><rect fill="#E8C000" height="8" width="100%" x="0" y="744"></rect><rect fill="#14283C" height="160" width="100%" x="0" y="752"></rect><rect fill="#003820" height="128" width="100%" x="0" y="912"></rect><rect fill="#880000" height="40" width="100%" x="0" y="1040"></rect><rect fill="#003820" height="24" width="100%" x="0" y="1080"></rect><rect fill="#880000" height="24" width="100%" x="0" y="1104"></rect><rect fill="#003820" height="16" width="100%" x="0" y="1128"></rect><rect fill="#880000" height="16" width="100%" x="0" y="1144"></rect><rect fill="#003820" height="128" width="100%" x="0" y="1160"></rect><rect fill="#14283C" height="160" width="100%" x="0" y="1288"></rect></g><g id="vertStripes" mask="url(#grating)"><rect fill="#003820" height="100%" width="24" x="0" y="0"></rect><rect fill="#14283C" height="100%" width="160" x="24" y="0"></rect><rect fill="#003820" height="100%" width="128" x="184" y="0"></rect><rect fill="#880000" height="100%" width="16" x="312" y="0"></rect><rect fill="#003820" height="100%" width="16" x="328" y="0"></rect><rect fill="#880000" height="100%" width="24" x="344" y="0"></rect><rect fill="#003820" height="100%" width="24" x="368" y="0"></rect><rect fill="#880000" height="100%" width="40" x="392" y="0"></rect><rect fill="#003820" height="100%" width="128" x="432" y="0"></rect><rect fill="#14283C" height="100%" width="160" x="560" y="0"></rect><rect fill="#E8C000" height="100%" width="8" x="720" y="0"></rect><rect fill="#101010" height="100%" width="16" x="728" y="0"></rect><rect fill="#E8C000" height="100%" width="8" x="744" y="0"></rect><rect fill="#14283C" height="100%" width="160" x="752" y="0"></rect><rect fill="#003820" height="100%" width="128" x="912" y="0"></rect><rect fill="#880000" height="100%" width="40" x="1040" y="0"></rect><rect fill="#003820" height="100%" width="24" x="1080" y="0"></rect><rect fill="#880000" height="100%" width="24" x="1104" y="0"></rect><rect fill="#003820" height="100%" width="16" x="1128" y="0"></rect><rect fill="#880000" height="100%" width="16" x="1144" y="0"></rect><rect fill="#003820" height="100%" width="128" x="1160" y="0"></rect><rect fill="#14283C" height="100%" width="160" x="1288" y="0"></rect></g></svg>