<svg viewBox="0 0 1056 1056" width="1056" height="1056" x="0" y="0" xmlns="http://www.w3.org/2000/svg"><defs><pattern id="pattern" x="0" y="0" width="8" height="8" patternUnits="userSpaceOnUse"><polygon points="0,4 0,8 8,0 4,0" fill="#ffffff"></polygon><polygon points="4,8 8,8 8,4" fill="#ffffff"></polygon></pattern><mask id="grating" x="0" y="0" width="1" height="1"><rect x="0" y="0" width="100%" height="100%" fill="url(#pattern)"></rect></mask></defs><g id="horizStripes"><rect fill="#006818" height="40" width="100%" x="0" y="0"></rect><rect fill="#780078" height="16" width="100%" x="0" y="40"></rect><rect fill="#006818" height="16" width="100%" x="0" y="56"></rect><rect fill="#780078" height="72" width="100%" x="0" y="72"></rect><rect fill="#101010" height="72" width="100%" x="0" y="144"></rect><rect fill="#A0A0A0" height="72" width="100%" x="0" y="216"></rect><rect fill="#F8F8F8" height="240" width="100%" x="0" y="288"></rect><rect fill="#2C2C80" height="40" width="100%" x="0" y="528"></rect><rect fill="#F8F8F8" height="240" width="100%" x="0" y="568"></rect><rect fill="#A0A0A0" height="72" width="100%" x="0" y="808"></rect><rect fill="#101010" height="72" width="100%" x="0" y="880"></rect><rect fill="#780078" height="72" width="100%" x="0" y="952"></rect><rect fill="#006818" height="16" width="100%" x="0" y="1024"></rect><rect fill="#780078" height="16" width="100%" x="0" y="1040"></rect></g><g id="vertStripes" mask="url(#grating)"><rect fill="#006818" height="100%" width="40" x="0" y="0"></rect><rect fill="#780078" height="100%" width="16" x="40" y="0"></rect><rect fill="#006818" height="100%" width="16" x="56" y="0"></rect><rect fill="#780078" height="100%" width="72" x="72" y="0"></rect><rect fill="#101010" height="100%" width="72" x="144" y="0"></rect><rect fill="#A0A0A0" height="100%" width="72" x="216" y="0"></rect><rect fill="#F8F8F8" height="100%" width="240" x="288" y="0"></rect><rect fill="#2C2C80" height="100%" width="40" x="528" y="0"></rect><rect fill="#F8F8F8" height="100%" width="240" x="568" y="0"></rect><rect fill="#A0A0A0" height="100%" width="72" x="808" y="0"></rect><rect fill="#101010" height="100%" width="72" x="880" y="0"></rect><rect fill="#780078" height="100%" width="72" x="952" y="0"></rect><rect fill="#006818" height="100%" width="16" x="1024" y="0"></rect><rect fill="#780078" height="100%" width="16" x="1040" y="0"></rect></g></svg>