<svg width="242" height="60" viewBox="0 0 242 60" fill="none" xmlns="http://www.w3.org/2000/svg">
<circle cx="30" cy="30" r="28.5" stroke="url(#paint0_linear)" stroke-width="3"/>
<path d="M93.6641 27.1133C94.7891 27.1133 95.2344 27.8281 95 29.2578C94.9062 29.8672 94.7422 30.6875 94.5078 31.7188C94.2734 32.75 93.9805 33.8281 93.6289 34.9531C93.2773 36.0547 92.8672 37.1328 92.3984 38.1875C91.9531 39.2422 91.4609 40.1094 90.9219 40.7891C90.4297 41.0234 90.0078 41.1641 89.6562 41.2109C89.4688 41.2578 89.3047 41.2695 89.1641 41.2461C88.9766 41.2461 88.8008 41.2227 88.6367 41.1758C88.4727 41.1289 88.3086 41.0352 88.1445 40.8945C88.0039 40.7539 87.8633 40.543 87.7227 40.2617C87.6055 39.9805 87.5117 39.5938 87.4414 39.1016C87.3242 38.375 87.1484 37.5898 86.9141 36.7461C86.7031 35.9023 86.4805 35.1289 86.2461 34.4258C86.0352 35.0586 85.8125 35.7031 85.5781 36.3594C85.3672 36.9922 85.1445 37.5898 84.9102 38.1523C84.6992 38.7148 84.4883 39.2188 84.2773 39.6641C84.0664 40.1094 83.8672 40.4492 83.6797 40.6836C82.9062 41.0352 82.3438 41.2461 81.9922 41.3164C81.7812 41.3867 81.6055 41.4102 81.4648 41.3867C80.9961 40.7773 80.5859 40.1328 80.2344 39.4531C79.8828 38.75 79.6016 38.0938 79.3906 37.4844C79.1328 36.7812 78.9219 36.0781 78.7578 35.375C78.5703 34.4844 78.4414 33.6289 78.3711 32.8086C78.3008 31.9883 78.2305 31.2383 78.1602 30.5586C78.1133 29.8555 78.043 29.2461 77.9492 28.7305C77.8789 28.2148 77.7383 27.8047 77.5273 27.5C77.7383 27.3359 77.9844 27.1836 78.2656 27.043C78.5469 26.8789 78.8398 26.7852 79.1445 26.7617C79.4492 26.7148 79.7539 26.7383 80.0586 26.832C80.3867 26.9023 80.7031 27.0781 81.0078 27.3594C81.0547 27.9688 81.0898 28.5664 81.1133 29.1523C81.1367 29.7148 81.1602 30.2305 81.1836 30.6992C81.207 31.2383 81.2188 31.7422 81.2188 32.2109C81.2422 32.7969 81.2656 33.418 81.2891 34.0742C81.3359 34.7305 81.3945 35.375 81.4648 36.0078C81.5352 36.6406 81.6406 37.2383 81.7812 37.8008C81.9453 38.3398 82.1562 38.7969 82.4141 39.1719C82.6719 38.75 83.0352 38.0586 83.5039 37.0977C83.9727 36.1133 84.3594 34.8828 84.6641 33.4062C84.7812 32.7969 84.8516 32.1875 84.875 31.5781C84.9219 30.9688 84.9219 30.418 84.875 29.9258C84.8516 29.4102 84.8047 28.9648 84.7344 28.5898C84.6875 28.1914 84.6289 27.9102 84.5586 27.7461C84.7461 27.6289 84.9453 27.5469 85.1562 27.5C85.3672 27.4297 85.5664 27.3711 85.7539 27.3242C85.9648 27.2773 86.1641 27.2539 86.3516 27.2539C86.9609 27.207 87.3711 27.3242 87.582 27.6055C87.8164 27.8633 87.875 28.3555 87.7578 29.082C87.7344 29.2695 87.6758 29.5625 87.582 29.9609C87.4883 30.3359 87.3711 30.793 87.2305 31.332C87.3711 31.8008 87.5352 32.3984 87.7227 33.125C87.9102 33.8281 88.0977 34.5195 88.2852 35.1992C88.4258 35.8555 88.5664 36.5234 88.707 37.2031C88.8477 37.8828 88.9648 38.4805 89.0586 38.9961C89.1758 38.9727 89.293 38.9258 89.4102 38.8555C89.5273 38.7852 89.6328 38.6562 89.7266 38.4688C89.8203 38.3047 89.9492 38.0352 90.1133 37.6602C90.2773 37.2852 90.4531 36.8281 90.6406 36.2891C90.8281 35.75 91.0039 35.1523 91.168 34.4961C91.3555 33.8398 91.5195 33.1367 91.6602 32.3867C91.918 30.8867 92.0117 29.7969 91.9414 29.1172C91.8945 28.4375 91.7656 27.9805 91.5547 27.7461C91.7891 27.582 92.0234 27.4648 92.2578 27.3945C92.5156 27.3008 92.75 27.2305 92.9609 27.1836C93.2188 27.1367 93.4531 27.1133 93.6641 27.1133ZM106.25 30.207C106.25 30.5352 106.156 30.875 105.969 31.2266C105.805 31.5547 105.594 31.8711 105.336 32.1758C105.078 32.4805 104.785 32.75 104.457 32.9844C104.152 33.1953 103.859 33.3242 103.578 33.3711C103.766 32.6445 103.824 32.082 103.754 31.6836C103.684 31.2852 103.566 30.9922 103.402 30.8047C103.215 30.5938 102.98 30.4766 102.699 30.4531C102.277 30.4531 101.867 30.6992 101.469 31.1914C101.094 31.6602 100.766 32.2461 100.484 32.9492C100.203 33.6289 99.9805 34.3672 99.8164 35.1641C99.6523 35.9375 99.5703 36.6406 99.5703 37.2734C99.5469 37.7188 99.5586 38.1523 99.6055 38.5742C99.6289 38.9258 99.6641 39.2891 99.7109 39.6641C99.7812 40.0391 99.875 40.332 99.9922 40.543C99.8516 40.6602 99.6172 40.8008 99.2891 40.9648C98.9844 41.1289 98.6562 41.2344 98.3047 41.2812C97.9766 41.3281 97.6719 41.2695 97.3906 41.1055C97.1328 40.9414 96.9922 40.5898 96.9688 40.0508C96.9219 39.5352 96.8867 38.9609 96.8633 38.3281C96.8633 37.6719 96.8633 37.0273 96.8633 36.3945C96.8867 35.7383 96.9102 35.0938 96.9336 34.4609C96.957 33.8281 96.9922 33.2422 97.0391 32.7031C97.0859 31.6719 97.1094 30.875 97.1094 30.3125C97.1094 29.75 97.0977 29.2109 97.0742 28.6953C97.0742 28.6016 97.2266 28.4727 97.5312 28.3086C97.8594 28.1211 98.2109 27.957 98.5859 27.8164C98.9844 27.6758 99.3477 27.5938 99.6758 27.5703C100.004 27.5469 100.168 27.6172 100.168 27.7812C100.168 28.0391 100.133 28.5547 100.062 29.3281C100.016 30.0781 99.9453 30.8633 99.8516 31.6836C100.016 31.2383 100.227 30.7578 100.484 30.2422C100.766 29.7266 101.082 29.2461 101.434 28.8008C101.785 28.3555 102.184 27.9922 102.629 27.7109C103.074 27.4062 103.566 27.2539 104.105 27.2539C104.527 27.2539 104.867 27.3828 105.125 27.6406C105.406 27.8984 105.629 28.1914 105.793 28.5195C105.957 28.8477 106.074 29.1758 106.145 29.5039C106.215 29.832 106.25 30.0664 106.25 30.207ZM107.586 28.5547C107.586 28.4141 107.773 28.2617 108.148 28.0977C108.523 27.9336 108.934 27.8047 109.379 27.7109C109.848 27.5938 110.27 27.5352 110.645 27.5352C111.043 27.5117 111.242 27.5938 111.242 27.7812C111.242 28.1328 111.219 28.6367 111.172 29.293C111.125 29.9258 111.066 30.6055 110.996 31.332C110.926 32.0352 110.855 32.75 110.785 33.4766C110.715 34.1797 110.668 34.7773 110.645 35.2695C110.598 35.7852 110.551 36.3477 110.504 36.957C110.457 37.4727 110.422 38.0469 110.398 38.6797C110.375 39.3125 110.375 39.957 110.398 40.6133C110.398 40.7305 110.281 40.8477 110.047 40.9648C109.812 41.082 109.555 41.1641 109.273 41.2109C108.992 41.2812 108.723 41.3164 108.465 41.3164C108.207 41.3164 108.066 41.2695 108.043 41.1758C107.996 41.082 107.949 40.918 107.902 40.6836C107.855 40.4492 107.809 40.1211 107.762 39.6992C107.715 39.2539 107.68 38.6914 107.656 38.0117C107.633 37.3086 107.645 36.4648 107.691 35.4805C107.785 33.5352 107.797 32.0352 107.727 30.9805C107.656 29.9023 107.609 29.0938 107.586 28.5547ZM110.047 21.5586C110.516 21.5586 110.961 21.6992 111.383 21.9805C111.805 22.2617 112.016 22.6367 112.016 23.1055C112.016 23.457 111.922 23.7969 111.734 24.125C111.57 24.4531 111.359 24.7461 111.102 25.0039C110.844 25.2617 110.551 25.4727 110.223 25.6367C109.895 25.7773 109.59 25.8477 109.309 25.8477C108.934 25.8477 108.629 25.7891 108.395 25.6719C108.16 25.5312 107.973 25.3789 107.832 25.2148C107.715 25.0273 107.633 24.8281 107.586 24.6172C107.539 24.4062 107.516 24.207 107.516 24.0195C107.516 23.7852 107.551 23.5273 107.621 23.2461C107.691 22.9414 107.82 22.6719 108.008 22.4375C108.195 22.1797 108.453 21.9688 108.781 21.8047C109.109 21.6406 109.531 21.5586 110.047 21.5586ZM109.168 24.8281C109.309 24.8281 109.461 24.7812 109.625 24.6875C109.812 24.5703 109.977 24.4414 110.117 24.3008C110.281 24.1602 110.41 24.0078 110.504 23.8438C110.621 23.6797 110.68 23.5391 110.68 23.4219C110.68 23.2344 110.586 23.1406 110.398 23.1406C110.281 23.1406 110.129 23.1875 109.941 23.2812C109.777 23.375 109.613 23.4922 109.449 23.6328C109.285 23.75 109.145 23.8906 109.027 24.0547C108.934 24.1953 108.887 24.3359 108.887 24.4766C108.887 24.7109 108.98 24.8281 109.168 24.8281ZM126.887 25.3555C126.629 25.3086 126.277 25.2617 125.832 25.2148C125.41 25.168 124.977 25.1328 124.531 25.1094C124.016 25.0859 123.465 25.0742 122.879 25.0742C122.293 25.0273 121.555 25.0273 120.664 25.0742C119.797 25.0977 118.883 25.1094 117.922 25.1094C117.898 25.7188 117.852 26.3398 117.781 26.9727C117.734 27.6055 117.688 28.2266 117.641 28.8359C117.523 29.9609 117.418 31.1094 117.324 32.2812C117.254 33.4531 117.219 34.5664 117.219 35.6211C117.219 36.6758 117.277 37.6367 117.395 38.5039C117.535 39.3477 117.781 40.0156 118.133 40.5078C117.852 40.7188 117.547 40.8828 117.219 41C116.891 41.0938 116.598 41.1641 116.34 41.2109C116.035 41.2812 115.73 41.3164 115.426 41.3164C115.145 41.3164 114.91 41.2227 114.723 41.0352C114.535 40.8477 114.43 40.5195 114.406 40.0508C114.359 39.2539 114.348 38.457 114.371 37.6602C114.418 36.8398 114.465 35.9844 114.512 35.0938C114.582 34.2031 114.652 33.2539 114.723 32.2461C114.793 31.2148 114.863 30.0898 114.934 28.8711C115.004 27.6055 115.039 26.375 115.039 25.1797C114.148 25.2031 113.398 25.2148 112.789 25.2148C112.18 25.2148 111.84 25.2031 111.77 25.1797C111.699 25.1328 111.617 25.0273 111.523 24.8633C111.43 24.7227 111.312 24.5117 111.172 24.2305C111.008 23.9492 110.809 23.5508 110.574 23.0352C111.02 23.0352 111.512 23.0352 112.051 23.0352C112.566 23.0352 113.047 23.0234 113.492 23C114.008 22.9766 114.523 22.9531 115.039 22.9297C115.016 22.5547 115.004 22.1562 115.004 21.7344C114.98 21.4062 114.969 21.043 114.969 20.6445C114.969 20.2227 114.957 19.8359 114.934 19.4844C114.934 19.3438 115.098 19.1797 115.426 18.9922C115.777 18.7812 116.152 18.5938 116.551 18.4297C116.949 18.2656 117.312 18.1602 117.641 18.1133C117.992 18.0664 118.168 18.1484 118.168 18.3594C118.168 18.5703 118.156 19.0859 118.133 19.9062C118.133 20.7031 118.109 21.6758 118.062 22.8242C118.297 22.8242 118.473 22.8125 118.59 22.7891C119.832 22.7422 120.828 22.6953 121.578 22.6484C122.352 22.5781 122.984 22.5664 123.477 22.6133C123.969 22.6602 124.402 22.7773 124.777 22.9648C125.152 23.1523 125.574 23.457 126.043 23.8789C126.207 24.0195 126.348 24.1719 126.465 24.3359C126.582 24.4766 126.676 24.6406 126.746 24.8281C126.84 24.9922 126.887 25.168 126.887 25.3555ZM125.691 41.3867C124.051 41.3867 122.785 40.8359 121.895 39.7344C121.004 38.6328 120.559 37.1914 120.559 35.4102C120.559 34.168 120.734 33.0078 121.086 31.9297C121.461 30.8281 121.953 29.8789 122.562 29.082C123.172 28.2852 123.875 27.6641 124.672 27.2188C125.492 26.75 126.348 26.5156 127.238 26.5156C128.105 26.5156 128.844 26.832 129.453 27.4648C130.062 28.0742 130.367 28.9531 130.367 30.1016C130.367 30.8516 130.203 31.6016 129.875 32.3516C129.547 33.0781 129.113 33.7344 128.574 34.3203C128.059 34.8828 127.484 35.3398 126.852 35.6914C126.219 36.043 125.609 36.2188 125.023 36.2188C124.648 36.2188 124.332 36.1719 124.074 36.0781C123.816 35.9844 123.582 35.8438 123.371 35.6562C123.441 36.9922 123.734 37.9297 124.25 38.4688C124.766 38.9844 125.434 39.2422 126.254 39.2422C126.816 39.2422 127.309 39.125 127.73 38.8906C128.176 38.6562 128.551 38.3867 128.855 38.082C129.16 37.7773 129.406 37.4727 129.594 37.168C129.781 36.8398 129.91 36.5938 129.98 36.4297C130.051 36.2891 130.168 36.2188 130.332 36.2188C130.52 36.2188 130.613 36.3594 130.613 36.6406C130.613 36.8984 130.52 37.2969 130.332 37.8359C130.168 38.3516 129.887 38.8789 129.488 39.418C129.09 39.9336 128.574 40.3906 127.941 40.7891C127.332 41.1875 126.582 41.3867 125.691 41.3867ZM127.309 28.0273C127.168 28.0273 126.898 28.1797 126.5 28.4844C126.125 28.7656 125.715 29.1875 125.27 29.75C124.848 30.3125 124.449 30.9922 124.074 31.7891C123.723 32.5625 123.5 33.4414 123.406 34.4258C124.812 34.0977 125.926 33.582 126.746 32.8789C127.566 32.1758 127.977 31.1445 127.977 29.7852C127.977 29.1055 127.895 28.6484 127.73 28.4141C127.566 28.1562 127.426 28.0273 127.309 28.0273ZM148.191 27.1133C149.316 27.1133 149.762 27.8281 149.527 29.2578C149.434 29.8672 149.27 30.6875 149.035 31.7188C148.801 32.75 148.508 33.8281 148.156 34.9531C147.805 36.0547 147.395 37.1328 146.926 38.1875C146.48 39.2422 145.988 40.1094 145.449 40.7891C144.957 41.0234 144.535 41.1641 144.184 41.2109C143.996 41.2578 143.832 41.2695 143.691 41.2461C143.504 41.2461 143.328 41.2227 143.164 41.1758C143 41.1289 142.836 41.0352 142.672 40.8945C142.531 40.7539 142.391 40.543 142.25 40.2617C142.133 39.9805 142.039 39.5938 141.969 39.1016C141.852 38.375 141.676 37.5898 141.441 36.7461C141.23 35.9023 141.008 35.1289 140.773 34.4258C140.562 35.0586 140.34 35.7031 140.105 36.3594C139.895 36.9922 139.672 37.5898 139.438 38.1523C139.227 38.7148 139.016 39.2188 138.805 39.6641C138.594 40.1094 138.395 40.4492 138.207 40.6836C137.434 41.0352 136.871 41.2461 136.52 41.3164C136.309 41.3867 136.133 41.4102 135.992 41.3867C135.523 40.7773 135.113 40.1328 134.762 39.4531C134.41 38.75 134.129 38.0938 133.918 37.4844C133.66 36.7812 133.449 36.0781 133.285 35.375C133.098 34.4844 132.969 33.6289 132.898 32.8086C132.828 31.9883 132.758 31.2383 132.688 30.5586C132.641 29.8555 132.57 29.2461 132.477 28.7305C132.406 28.2148 132.266 27.8047 132.055 27.5C132.266 27.3359 132.512 27.1836 132.793 27.043C133.074 26.8789 133.367 26.7852 133.672 26.7617C133.977 26.7148 134.281 26.7383 134.586 26.832C134.914 26.9023 135.23 27.0781 135.535 27.3594C135.582 27.9688 135.617 28.5664 135.641 29.1523C135.664 29.7148 135.688 30.2305 135.711 30.6992C135.734 31.2383 135.746 31.7422 135.746 32.2109C135.77 32.7969 135.793 33.418 135.816 34.0742C135.863 34.7305 135.922 35.375 135.992 36.0078C136.062 36.6406 136.168 37.2383 136.309 37.8008C136.473 38.3398 136.684 38.7969 136.941 39.1719C137.199 38.75 137.562 38.0586 138.031 37.0977C138.5 36.1133 138.887 34.8828 139.191 33.4062C139.309 32.7969 139.379 32.1875 139.402 31.5781C139.449 30.9688 139.449 30.418 139.402 29.9258C139.379 29.4102 139.332 28.9648 139.262 28.5898C139.215 28.1914 139.156 27.9102 139.086 27.7461C139.273 27.6289 139.473 27.5469 139.684 27.5C139.895 27.4297 140.094 27.3711 140.281 27.3242C140.492 27.2773 140.691 27.2539 140.879 27.2539C141.488 27.207 141.898 27.3242 142.109 27.6055C142.344 27.8633 142.402 28.3555 142.285 29.082C142.262 29.2695 142.203 29.5625 142.109 29.9609C142.016 30.3359 141.898 30.793 141.758 31.332C141.898 31.8008 142.062 32.3984 142.25 33.125C142.438 33.8281 142.625 34.5195 142.812 35.1992C142.953 35.8555 143.094 36.5234 143.234 37.2031C143.375 37.8828 143.492 38.4805 143.586 38.9961C143.703 38.9727 143.82 38.9258 143.938 38.8555C144.055 38.7852 144.16 38.6562 144.254 38.4688C144.348 38.3047 144.477 38.0352 144.641 37.6602C144.805 37.2852 144.98 36.8281 145.168 36.2891C145.355 35.75 145.531 35.1523 145.695 34.4961C145.883 33.8398 146.047 33.1367 146.188 32.3867C146.445 30.8867 146.539 29.7969 146.469 29.1172C146.422 28.4375 146.293 27.9805 146.082 27.7461C146.316 27.582 146.551 27.4648 146.785 27.3945C147.043 27.3008 147.277 27.2305 147.488 27.1836C147.746 27.1367 147.98 27.1133 148.191 27.1133ZM151.461 28.5547C151.461 28.4141 151.648 28.2617 152.023 28.0977C152.398 27.9336 152.809 27.8047 153.254 27.7109C153.723 27.5938 154.145 27.5352 154.52 27.5352C154.918 27.5117 155.117 27.5938 155.117 27.7812C155.117 28.1328 155.094 28.6367 155.047 29.293C155 29.9258 154.941 30.6055 154.871 31.332C154.801 32.0352 154.73 32.75 154.66 33.4766C154.59 34.1797 154.543 34.7773 154.52 35.2695C154.473 35.7852 154.426 36.3477 154.379 36.957C154.332 37.4727 154.297 38.0469 154.273 38.6797C154.25 39.3125 154.25 39.957 154.273 40.6133C154.273 40.7305 154.156 40.8477 153.922 40.9648C153.688 41.082 153.43 41.1641 153.148 41.2109C152.867 41.2812 152.598 41.3164 152.34 41.3164C152.082 41.3164 151.941 41.2695 151.918 41.1758C151.871 41.082 151.824 40.918 151.777 40.6836C151.73 40.4492 151.684 40.1211 151.637 39.6992C151.59 39.2539 151.555 38.6914 151.531 38.0117C151.508 37.3086 151.52 36.4648 151.566 35.4805C151.66 33.5352 151.672 32.0352 151.602 30.9805C151.531 29.9023 151.484 29.0938 151.461 28.5547ZM153.922 21.5586C154.391 21.5586 154.836 21.6992 155.258 21.9805C155.68 22.2617 155.891 22.6367 155.891 23.1055C155.891 23.457 155.797 23.7969 155.609 24.125C155.445 24.4531 155.234 24.7461 154.977 25.0039C154.719 25.2617 154.426 25.4727 154.098 25.6367C153.77 25.7773 153.465 25.8477 153.184 25.8477C152.809 25.8477 152.504 25.7891 152.27 25.6719C152.035 25.5312 151.848 25.3789 151.707 25.2148C151.59 25.0273 151.508 24.8281 151.461 24.6172C151.414 24.4062 151.391 24.207 151.391 24.0195C151.391 23.7852 151.426 23.5273 151.496 23.2461C151.566 22.9414 151.695 22.6719 151.883 22.4375C152.07 22.1797 152.328 21.9688 152.656 21.8047C152.984 21.6406 153.406 21.5586 153.922 21.5586ZM153.043 24.8281C153.184 24.8281 153.336 24.7812 153.5 24.6875C153.688 24.5703 153.852 24.4414 153.992 24.3008C154.156 24.1602 154.285 24.0078 154.379 23.8438C154.496 23.6797 154.555 23.5391 154.555 23.4219C154.555 23.2344 154.461 23.1406 154.273 23.1406C154.156 23.1406 154.004 23.1875 153.816 23.2812C153.652 23.375 153.488 23.4922 153.324 23.6328C153.16 23.75 153.02 23.8906 152.902 24.0547C152.809 24.1953 152.762 24.3359 152.762 24.4766C152.762 24.7109 152.855 24.8281 153.043 24.8281ZM170.762 25.3555C170.504 25.3086 170.152 25.2617 169.707 25.2148C169.285 25.168 168.852 25.1328 168.406 25.1094C167.891 25.0859 167.34 25.0742 166.754 25.0742C166.168 25.0273 165.43 25.0273 164.539 25.0742C163.672 25.0977 162.758 25.1094 161.797 25.1094C161.773 25.7188 161.727 26.3398 161.656 26.9727C161.609 27.6055 161.562 28.2266 161.516 28.8359C161.398 29.9609 161.293 31.1094 161.199 32.2812C161.129 33.4531 161.094 34.5664 161.094 35.6211C161.094 36.6758 161.152 37.6367 161.27 38.5039C161.41 39.3477 161.656 40.0156 162.008 40.5078C161.727 40.7188 161.422 40.8828 161.094 41C160.766 41.0938 160.473 41.1641 160.215 41.2109C159.91 41.2812 159.605 41.3164 159.301 41.3164C159.02 41.3164 158.785 41.2227 158.598 41.0352C158.41 40.8477 158.305 40.5195 158.281 40.0508C158.234 39.2539 158.223 38.457 158.246 37.6602C158.293 36.8398 158.34 35.9844 158.387 35.0938C158.457 34.2031 158.527 33.2539 158.598 32.2461C158.668 31.2148 158.738 30.0898 158.809 28.8711C158.879 27.6055 158.914 26.375 158.914 25.1797C158.023 25.2031 157.273 25.2148 156.664 25.2148C156.055 25.2148 155.715 25.2031 155.645 25.1797C155.574 25.1328 155.492 25.0273 155.398 24.8633C155.305 24.7227 155.188 24.5117 155.047 24.2305C154.883 23.9492 154.684 23.5508 154.449 23.0352C154.895 23.0352 155.387 23.0352 155.926 23.0352C156.441 23.0352 156.922 23.0234 157.367 23C157.883 22.9766 158.398 22.9531 158.914 22.9297C158.891 22.5547 158.879 22.1562 158.879 21.7344C158.855 21.4062 158.844 21.043 158.844 20.6445C158.844 20.2227 158.832 19.8359 158.809 19.4844C158.809 19.3438 158.973 19.1797 159.301 18.9922C159.652 18.7812 160.027 18.5938 160.426 18.4297C160.824 18.2656 161.188 18.1602 161.516 18.1133C161.867 18.0664 162.043 18.1484 162.043 18.3594C162.043 18.5703 162.031 19.0859 162.008 19.9062C162.008 20.7031 161.984 21.6758 161.938 22.8242C162.172 22.8242 162.348 22.8125 162.465 22.7891C163.707 22.7422 164.703 22.6953 165.453 22.6484C166.227 22.5781 166.859 22.5664 167.352 22.6133C167.844 22.6602 168.277 22.7773 168.652 22.9648C169.027 23.1523 169.449 23.457 169.918 23.8789C170.082 24.0195 170.223 24.1719 170.34 24.3359C170.457 24.4766 170.551 24.6406 170.621 24.8281C170.715 24.9922 170.762 25.168 170.762 25.3555ZM167.809 35.4805C168.09 34.6367 168.324 33.9219 168.512 33.3359C168.723 32.75 168.898 32.2812 169.039 31.9297C169.203 31.5078 169.344 31.168 169.461 30.9102C169.602 30.5352 169.754 30.1602 169.918 29.7852C170.105 29.4102 170.293 29.0703 170.48 28.7656C170.668 28.4375 170.844 28.168 171.008 27.957C171.172 27.7461 171.312 27.6055 171.43 27.5352C171.523 27.4883 171.734 27.4883 172.062 27.5352C172.414 27.582 172.789 27.6992 173.188 27.8867C173.609 28.0508 173.996 28.2852 174.348 28.5898C174.723 28.8945 174.98 29.2695 175.121 29.7148C175.262 30.2539 175.309 30.957 175.262 31.8242C175.215 32.6914 175.145 33.582 175.051 34.4961C174.98 35.4102 174.922 36.2773 174.875 37.0977C174.852 37.918 174.91 38.5391 175.051 38.9609C175.145 39.1953 175.238 39.4297 175.332 39.6641C175.426 39.8516 175.531 40.0508 175.648 40.2617C175.789 40.4492 175.941 40.6133 176.105 40.7539C175.426 41.0117 174.875 41.1992 174.453 41.3164C174.055 41.457 173.75 41.5508 173.539 41.5977C173.281 41.668 173.105 41.6797 173.012 41.6328C172.824 41.5625 172.648 41.3867 172.484 41.1055C172.32 40.8242 172.18 40.3789 172.062 39.7695C172.016 39.582 172.004 39.2539 172.027 38.7852C172.051 38.3164 172.086 37.7891 172.133 37.2031C172.18 36.6172 172.227 36.0078 172.273 35.375C172.32 34.7188 172.367 34.1094 172.414 33.5469C172.461 32.9844 172.484 32.4922 172.484 32.0703C172.508 31.6484 172.508 31.3672 172.484 31.2266C172.367 30.8281 172.203 30.5469 171.992 30.3828C171.781 30.1953 171.617 30.1719 171.5 30.3125C171.219 30.6641 170.902 31.2734 170.551 32.1406C170.223 32.9844 169.906 33.9102 169.602 34.918C169.297 35.9023 169.027 36.8867 168.793 37.8711C168.582 38.8555 168.453 39.6641 168.406 40.2969C168.406 40.4375 168.289 40.5898 168.055 40.7539C167.844 40.8945 167.598 41.0234 167.316 41.1406C167.059 41.2578 166.801 41.3281 166.543 41.3516C166.285 41.3984 166.109 41.3633 166.016 41.2461C165.945 41.1758 165.793 41.0117 165.559 40.7539C165.348 40.4961 165.23 40.0625 165.207 39.4531C165.16 38.8672 165.16 38.0703 165.207 37.0625C165.254 36.0312 165.266 34.9531 165.242 33.8281V31.2266C165.242 30.1719 165.23 28.7188 165.207 26.8672C165.207 24.9922 165.195 22.5195 165.172 19.4492C165.43 19.3086 165.664 19.1914 165.875 19.0977C166.086 18.9805 166.285 18.8867 166.473 18.8164C166.684 18.7227 166.883 18.6523 167.07 18.6055C168.078 18.3477 168.605 18.3477 168.652 18.6055C168.676 18.8398 168.652 19.5898 168.582 20.8555C168.559 21.3945 168.523 22.0742 168.477 22.8945C168.43 23.7148 168.371 24.7109 168.301 25.8828C168.254 27.0547 168.184 28.4375 168.09 30.0312C168.02 31.6016 167.926 33.418 167.809 35.4805ZM177.371 39.0312C177.582 38.8438 177.91 38.6914 178.355 38.5742C178.801 38.457 179.281 38.375 179.797 38.3281C180.336 38.2578 180.887 38.2227 181.449 38.2227C182.012 38.1992 182.527 38.1992 182.996 38.2227C183.957 38.2461 185.023 38.2812 186.195 38.3281C187.203 38.375 188.387 38.4336 189.746 38.5039C191.105 38.5508 192.594 38.6094 194.211 38.6797C194.164 39.5234 193.977 40.168 193.648 40.6133C193.32 41.0586 192.758 41.2578 191.961 41.2109C191.562 41.1875 191.082 41.1523 190.52 41.1055C189.957 41.0586 189.336 41.0234 188.656 41C188 40.9766 187.297 40.9648 186.547 40.9648C185.797 40.9414 185.047 40.9531 184.297 41C183.477 41 182.645 41.0117 181.801 41.0352C181.074 41.082 180.266 41.1289 179.375 41.1758C178.484 41.2461 177.629 41.3398 176.809 41.457C176.668 41.082 176.621 40.7539 176.668 40.4727C176.691 40.168 176.762 39.9102 176.879 39.6992C176.996 39.4414 177.16 39.2188 177.371 39.0312ZM197.27 20.8203C196.941 20.8906 196.625 20.9727 196.32 21.0664C196.062 21.1602 195.77 21.2656 195.441 21.3828C195.137 21.4766 194.844 21.5938 194.562 21.7344C194.469 21.3828 194.375 20.9961 194.281 20.5742C194.211 20.1523 194.199 19.7539 194.246 19.3789C194.293 18.9805 194.422 18.6406 194.633 18.3594C194.867 18.0547 195.254 17.8789 195.793 17.832C196.309 17.7617 196.906 17.7148 197.586 17.6914C198.266 17.668 198.969 17.6562 199.695 17.6562C200.445 17.6562 201.207 17.6797 201.98 17.7266C202.754 17.75 203.516 17.8086 204.266 17.9023C204.312 18.2773 204.348 18.6055 204.371 18.8867C204.395 19.1445 204.406 19.3672 204.406 19.5547V20.1172C204.406 20.2578 204.383 20.375 204.336 20.4688C204.242 20.7031 204.078 20.8555 203.844 20.9258C203.586 20.8555 203.281 20.8086 202.93 20.7852C202.602 20.7383 202.273 20.6914 201.945 20.6445C201.57 20.5977 201.184 20.5625 200.785 20.5391C200.832 21.3594 200.867 22.5547 200.891 24.125C200.938 25.6719 200.938 27.7109 200.891 30.2422C200.844 32.8203 200.797 34.9297 200.75 36.5703C200.727 38.1875 200.703 39.4414 200.68 40.332C201.57 40.4023 202.227 40.5547 202.648 40.7891C203.094 41 203.387 41.2461 203.527 41.5273C203.691 41.832 203.75 42.1602 203.703 42.5117C203.68 42.8633 203.656 43.2031 203.633 43.5312C203.234 43.4375 202.777 43.3672 202.262 43.3203C201.77 43.2969 201.301 43.2852 200.855 43.2852C200.34 43.2852 199.812 43.3086 199.273 43.3555C198.664 43.4023 198.078 43.4727 197.516 43.5664C197.047 43.6602 196.578 43.7773 196.109 43.918C195.641 44.0586 195.289 44.2578 195.055 44.5156C194.867 44.1641 194.727 43.7891 194.633 43.3906C194.539 43.0625 194.469 42.6758 194.422 42.2305C194.375 41.7852 194.387 41.3281 194.457 40.8594C194.715 40.7656 195.008 40.6953 195.336 40.6484C195.664 40.5781 195.969 40.5195 196.25 40.4727C196.578 40.4258 196.918 40.3906 197.27 40.3672C197.316 39.6172 197.375 38.5742 197.445 37.2383C197.516 35.8789 197.574 34.0625 197.621 31.7891C197.668 28.9297 197.645 26.6094 197.551 24.8281C197.457 23.0234 197.363 21.6875 197.27 20.8203ZM205.918 39.6992C205.895 39.2305 205.883 38.5859 205.883 37.7656C205.906 36.9453 205.93 36.043 205.953 35.0586C206 34.0508 206.047 32.9961 206.094 31.8945C206.141 30.7695 206.176 29.668 206.199 28.5898C206.246 27.5117 206.281 26.4922 206.305 25.5312C206.352 24.5469 206.387 23.6914 206.41 22.9648C206.434 22.4492 206.457 21.9453 206.48 21.4531C206.504 21.0312 206.516 20.5742 206.516 20.082C206.516 19.5898 206.492 19.1445 206.445 18.7461C206.633 18.6758 206.785 18.6055 206.902 18.5352C207.02 18.4648 207.137 18.3945 207.254 18.3242C207.371 18.2305 207.5 18.1367 207.641 18.043C207.805 17.9258 208.027 17.8086 208.309 17.6914C208.473 17.6211 208.648 17.5625 208.836 17.5156C209 17.4688 209.176 17.4336 209.363 17.4102C209.574 17.3867 209.797 17.3867 210.031 17.4102C210.43 18.7227 210.828 19.9414 211.227 21.0664C211.648 22.168 212.07 23.2461 212.492 24.3008C212.914 25.332 213.359 26.375 213.828 27.4297C214.297 28.4609 214.777 29.5742 215.27 30.7695C215.785 31.9883 216.254 33.1016 216.676 34.1094C217.098 35.1172 217.449 35.9961 217.73 36.7461C217.777 35.9023 217.824 34.9648 217.871 33.9336C217.918 32.8789 217.953 31.8008 217.977 30.6992C218 29.5977 218.012 28.5195 218.012 27.4648C218.035 26.3867 218.047 25.3906 218.047 24.4766C218.07 23.5391 218.082 22.7188 218.082 22.0156C218.082 21.3125 218.082 20.7969 218.082 20.4688C218.082 19.8828 218.234 19.4023 218.539 19.0273C218.867 18.6289 219.23 18.3125 219.629 18.0781C220.051 17.8438 220.461 17.6797 220.859 17.5859C221.281 17.4922 221.586 17.4453 221.773 17.4453C221.914 17.4453 222.031 17.457 222.125 17.4805C222.219 17.5039 222.301 17.5273 222.371 17.5508C222.465 17.5742 222.535 17.6094 222.582 17.6562C222.184 18.1953 221.891 18.7695 221.703 19.3789C221.516 19.9883 221.375 20.5977 221.281 21.207C221.211 21.8164 221.176 22.4141 221.176 23C221.176 23.5859 221.176 24.125 221.176 24.6172C221.152 25.7891 221.117 27.2305 221.07 28.9414C221.023 30.418 220.988 32.2578 220.965 34.4609C220.941 36.6641 220.93 39.3008 220.93 42.3711C220.438 42.7695 219.98 43.1094 219.559 43.3906C219.137 43.6719 218.598 43.7656 217.941 43.6719C217.66 43.6484 217.426 43.5312 217.238 43.3203C217.074 43.1094 216.898 42.8047 216.711 42.4062C216.547 42.0312 216.371 41.5625 216.184 41C215.996 40.4141 215.75 39.7344 215.445 38.9609C214.906 37.6016 214.355 36.2305 213.793 34.8477C213.23 33.4648 212.691 32.1523 212.176 30.9102C211.66 29.668 211.18 28.543 210.734 27.5352C210.312 26.5039 209.961 25.6719 209.68 25.0391C209.258 28.25 209.059 31.0156 209.082 33.3359C209.129 35.6562 209.211 37.3555 209.328 38.4336C209.398 38.9023 209.48 39.3828 209.574 39.875C209.668 40.2969 209.785 40.7656 209.926 41.2812C210.066 41.8203 210.254 42.3594 210.488 42.8984C210.09 43.2969 209.691 43.5664 209.293 43.707C208.918 43.8477 208.578 43.9414 208.273 43.9883C207.922 44.0352 207.582 44.0234 207.254 43.9531C207.09 43.9062 206.926 43.7422 206.762 43.4609C206.621 43.2031 206.492 42.875 206.375 42.4766C206.258 42.0781 206.152 41.6328 206.059 41.1406C205.988 40.6719 205.941 40.1914 205.918 39.6992ZM225.113 33.3711C225.137 32.1523 225.148 30.9805 225.148 29.8555C225.172 28.707 225.195 27.7227 225.219 26.9023C225.242 26.0586 225.266 25.1914 225.289 24.3008C225.312 23.3867 225.312 22.5312 225.289 21.7344C225.289 20.9141 225.266 20.1875 225.219 19.5547C225.172 18.9219 225.102 18.4648 225.008 18.1836C225.523 17.8555 226.027 17.6328 226.52 17.5156C226.777 17.4453 227.035 17.3984 227.293 17.375C227.621 17.3516 227.867 17.375 228.031 17.4453C228.195 17.4922 228.312 17.5977 228.383 17.7617C228.453 17.9258 228.488 18.125 228.488 18.3594C228.512 18.5703 228.523 18.8164 228.523 19.0977C228.523 19.3789 228.5 19.8711 228.453 20.5742C228.43 21.2773 228.395 22.1211 228.348 23.1055C228.301 24.0898 228.266 25.1797 228.242 26.375C228.219 27.5469 228.207 28.7422 228.207 29.9609C228.84 29.2344 229.473 28.4961 230.105 27.7461C230.762 26.9961 231.324 26.293 231.793 25.6367C233.035 23.9258 233.984 22.4258 234.641 21.1367C235.297 19.8242 235.625 18.9102 235.625 18.3945C236.023 18.1367 236.398 17.9375 236.75 17.7969C237.102 17.6562 237.406 17.5508 237.664 17.4805C237.945 17.3867 238.203 17.3398 238.438 17.3398C238.953 17.3398 239.234 17.5625 239.281 18.0078C239.352 18.4531 239.305 18.9336 239.141 19.4492C238.977 19.8945 238.66 20.5039 238.191 21.2773C237.746 22.0273 237.207 22.8711 236.574 23.8086C235.941 24.7461 235.238 25.7305 234.465 26.7617C233.691 27.7695 232.895 28.7539 232.074 29.7148C232.496 30.4883 232.988 31.4141 233.551 32.4922C234.137 33.5469 234.723 34.6016 235.309 35.6562C235.918 36.6875 236.492 37.6484 237.031 38.5391C237.57 39.4062 238.016 40.0508 238.367 40.4727C238.812 41.0586 239.176 41.5156 239.457 41.8438C239.738 42.1719 239.984 42.4414 240.195 42.6523C240.406 42.8633 240.605 43.0391 240.793 43.1797C241.004 43.3203 241.25 43.4844 241.531 43.6719C241.133 43.8594 240.734 44 240.336 44.0938C239.961 44.1875 239.621 44.2578 239.316 44.3047C238.941 44.3516 238.602 44.375 238.297 44.375C237.664 44.3516 237.066 44.0586 236.504 43.4961C235.965 42.957 235.484 42.3125 235.062 41.5625C234.898 41.3047 234.617 40.8008 234.219 40.0508C233.844 39.3008 233.41 38.457 232.918 37.5195C232.449 36.5586 231.957 35.5859 231.441 34.6016C230.926 33.5938 230.48 32.7148 230.105 31.9648C229.777 32.293 229.461 32.6094 229.156 32.9141C228.875 33.2188 228.57 33.5 228.242 33.7578C228.266 34.7891 228.277 35.7617 228.277 36.6758C228.301 37.5664 228.312 38.3867 228.312 39.1367C228.312 39.8633 228.301 40.4844 228.277 41C228.277 41.4922 228.277 41.8438 228.277 42.0547C228.277 42.3359 228.207 42.5938 228.066 42.8281C227.926 43.0859 227.703 43.3086 227.398 43.4961C227.117 43.6836 226.719 43.8242 226.203 43.918C225.711 44.0117 225.102 44.0469 224.375 44.0234C224.422 43.6953 224.48 43.2852 224.551 42.793C224.621 42.3008 224.68 41.8203 224.727 41.3516C224.797 40.8125 224.855 40.2734 224.902 39.7344C224.949 39.1953 224.984 38.5625 225.008 37.8359C225.031 37.1094 225.055 36.3242 225.078 35.4805C224.938 35.3398 224.785 35.1758 224.621 34.9883C224.48 34.8008 224.352 34.5781 224.234 34.3203C224.328 34.2266 224.422 34.1211 224.516 34.0039C224.609 33.8867 224.703 33.7812 224.797 33.6875L225.113 33.3711Z" fill="white"/>
<defs>
<linearGradient id="paint0_linear" x1="30" y1="0" x2="30" y2="60" gradientUnits="userSpaceOnUse">
<stop stop-color="#BE9063"/>
<stop offset="1" stop-color="#DF0058" stop-opacity="0.72"/>
</linearGradient>
</defs>
</svg>
